<?xml version="1.0" encoding="utf-8"?>
<!-- Generator: Adobe Illustrator 16.0.0, SVG Export Plug-In . SVG Version: 6.00 Build 0)  -->
<!DOCTYPE svg PUBLIC "-//W3C//DTD SVG 1.1//EN" "http://www.w3.org/Graphics/SVG/1.1/DTD/svg11.dtd">
<svg version="1.1" id="Layer_1" xmlns="http://www.w3.org/2000/svg" xmlns:xlink="http://www.w3.org/1999/xlink" x="0px" y="0px"
	 width="30.545px" height="59.28px" viewBox="0 0 30.545 59.28" enable-background="new 0 0 30.545 59.28" xml:space="preserve">
<g>
	<path style="fill:#fff" d="M3.164,26.768V11.967l5.673,5.595v7.758l-3.545,3.631L3.164,26.768z M26.291,10.898l-5.673,5.672H9.927l-5.673-5.672
		H26.291z M26.291,49.08H4.254l5.673-5.673h10.691L26.291,49.08z M21.327,27.152l2.836,2.836l-2.836,2.836H9.218l-2.836-2.836
		l2.836-2.836H21.327z M21.655,25.338v-7.723l5.672-5.594v14.754L25.2,28.952L21.655,25.338z M27.327,33.203v14.754l-5.672-5.673
		v-7.669L25.2,31.08L27.327,33.203z"/>
</g>
</svg>
